<svg width="262" height="50" viewBox="0 0 262 50" fill="none" xmlns="http://www.w3.org/2000/svg">
<rect width="25" height="25" rx="2" fill="white"/>
<rect x="25" y="25" width="25" height="25" rx="2" fill="#1289CC"/>
<rect x="8.50049" y="21.7939" width="20" height="1.5" transform="rotate(-70 8.50049 21.7939)" fill="#1289CC"/>
<path fill-rule="evenodd" clip-rule="evenodd" d="M37.5 31.875L30.625 35.625L33.125 36.9875V40.7375L37.5 43.125L41.875 40.7375V36.9875L43.125 36.3063V40.625H44.375V35.625L37.5 31.875ZM41.7625 35.625L37.5 37.95L33.2375 35.625L37.5 33.3L41.7625 35.625ZM37.5 41.7L40.625 39.9938V37.6688L37.5 39.375L34.375 37.6688V39.9938L37.5 41.7Z" fill="white"/>
<path d="M92.24 37.64C92.56 37.64 92.84 37.76 93.08 38C93.32 38.2133 93.44 38.48 93.44 38.8C93.44 39.1467 93.32 39.44 93.08 39.68C92.84 39.8933 92.56 40 92.24 40H77.96C77.6133 40 77.32 39.88 77.08 39.64C76.8667 39.4 76.76 39.12 76.76 38.8V13.2C76.76 12.88 76.88 12.6 77.12 12.36C77.36 12.12 77.6667 12 78.04 12C78.36 12 78.64 12.12 78.88 12.36C79.1467 12.6 79.28 12.88 79.28 13.2V38.32L78.52 37.64H92.24ZM106.689 40.4C104.636 40.4 102.822 39.96 101.249 39.08C99.6757 38.2 98.4491 36.9733 97.5691 35.4C96.6891 33.8267 96.2491 31.9867 96.2491 29.88C96.2491 27.6133 96.6891 25.68 97.5691 24.08C98.4757 22.48 99.6357 21.2533 101.049 20.4C102.489 19.52 104.009 19.08 105.609 19.08C106.782 19.08 107.916 19.2933 109.009 19.72C110.129 20.12 111.116 20.7333 111.969 21.56C112.849 22.36 113.542 23.3467 114.049 24.52C114.582 25.6933 114.876 27.0533 114.929 28.6C114.902 28.92 114.769 29.2 114.529 29.44C114.289 29.6533 114.009 29.76 113.689 29.76H97.6491L97.1691 27.6H112.929L112.409 28.08V27.28C112.302 26.0267 111.902 24.96 111.209 24.08C110.516 23.2 109.676 22.5333 108.689 22.08C107.702 21.6267 106.676 21.4 105.609 21.4C104.809 21.4 103.982 21.56 103.129 21.88C102.302 22.2 101.542 22.7067 100.849 23.4C100.182 24.0667 99.6357 24.9333 99.2091 26C98.7824 27.04 98.5691 28.28 98.5691 29.72C98.5691 31.2933 98.8891 32.72 99.5291 34C100.169 35.28 101.089 36.2933 102.289 37.04C103.516 37.7867 104.969 38.16 106.649 38.16C107.582 38.16 108.422 38.0267 109.169 37.76C109.916 37.4933 110.569 37.1467 111.129 36.72C111.689 36.2667 112.156 35.8 112.529 35.32C112.822 35.08 113.116 34.96 113.409 34.96C113.676 34.96 113.902 35.0667 114.089 35.28C114.302 35.4933 114.409 35.7333 114.409 36C114.409 36.32 114.276 36.6 114.009 36.84C113.209 37.8 112.169 38.64 110.889 39.36C109.609 40.0533 108.209 40.4 106.689 40.4ZM136.983 19.56C137.329 19.56 137.609 19.68 137.823 19.92C138.063 20.16 138.182 20.4533 138.182 20.8V38.8C138.182 39.12 138.063 39.4 137.823 39.64C137.583 39.88 137.303 40 136.983 40C136.636 40 136.343 39.88 136.103 39.64C135.889 39.4 135.783 39.12 135.783 38.8V34.04L136.463 33.72C136.463 34.4667 136.249 35.2267 135.823 36C135.423 36.7733 134.863 37.4933 134.143 38.16C133.423 38.8267 132.569 39.3733 131.583 39.8C130.623 40.2 129.583 40.4 128.463 40.4C126.649 40.4 125.023 39.9333 123.583 39C122.169 38.0667 121.049 36.7867 120.223 35.16C119.423 33.5333 119.023 31.7067 119.023 29.68C119.023 27.6 119.436 25.7733 120.263 24.2C121.089 22.6 122.209 21.3467 123.623 20.44C125.036 19.5333 126.636 19.08 128.423 19.08C129.569 19.08 130.636 19.28 131.623 19.68C132.636 20.08 133.516 20.6267 134.263 21.32C135.009 22.0133 135.583 22.8133 135.983 23.72C136.409 24.6 136.623 25.52 136.623 26.48L135.783 25.88V20.8C135.783 20.4533 135.889 20.16 136.103 19.92C136.343 19.68 136.636 19.56 136.983 19.56ZM128.663 38.16C130.076 38.16 131.329 37.8 132.423 37.08C133.516 36.3333 134.369 35.32 134.983 34.04C135.623 32.7333 135.943 31.28 135.943 29.68C135.943 28.1067 135.623 26.6933 134.983 25.44C134.369 24.1867 133.516 23.1867 132.423 22.44C131.329 21.6933 130.076 21.32 128.663 21.32C127.276 21.32 126.023 21.68 124.903 22.4C123.809 23.12 122.943 24.1067 122.303 25.36C121.689 26.6133 121.383 28.0533 121.383 29.68C121.383 31.28 121.689 32.7333 122.303 34.04C122.943 35.32 123.809 36.3333 124.903 37.08C125.996 37.8 127.249 38.16 128.663 38.16ZM145.68 40C145.307 40 145.014 39.88 144.8 39.64C144.587 39.4 144.48 39.12 144.48 38.8V20.88C144.48 20.56 144.587 20.28 144.8 20.04C145.04 19.8 145.334 19.68 145.68 19.68C146.027 19.68 146.307 19.8 146.52 20.04C146.76 20.28 146.88 20.56 146.88 20.88V26.88L146.28 27C146.36 26.0667 146.587 25.1467 146.96 24.24C147.36 23.3067 147.894 22.4533 148.56 21.68C149.227 20.9067 150.014 20.28 150.92 19.8C151.854 19.32 152.894 19.08 154.04 19.08C154.52 19.08 154.987 19.1867 155.44 19.4C155.894 19.5867 156.12 19.9067 156.12 20.36C156.12 20.76 156.014 21.0667 155.8 21.28C155.587 21.4933 155.334 21.6 155.04 21.6C154.8 21.6 154.534 21.5333 154.24 21.4C153.974 21.2667 153.614 21.2 153.16 21.2C152.414 21.2 151.667 21.4267 150.92 21.88C150.174 22.3067 149.494 22.8933 148.88 23.64C148.267 24.3867 147.774 25.2267 147.4 26.16C147.054 27.0667 146.88 27.9867 146.88 28.92V38.8C146.88 39.12 146.76 39.4 146.52 39.64C146.28 39.88 146 40 145.68 40ZM169.511 19.08C171.271 19.08 172.671 19.44 173.711 20.16C174.778 20.8533 175.538 21.8133 175.991 23.04C176.471 24.24 176.711 25.5733 176.711 27.04V38.8C176.711 39.12 176.591 39.4 176.351 39.64C176.111 39.88 175.831 40 175.511 40C175.138 40 174.844 39.88 174.631 39.64C174.418 39.4 174.311 39.12 174.311 38.8V27.16C174.311 26.0933 174.138 25.12 173.791 24.24C173.444 23.36 172.871 22.6533 172.071 22.12C171.298 21.5867 170.271 21.32 168.991 21.32C167.844 21.32 166.751 21.5867 165.711 22.12C164.698 22.6533 163.871 23.36 163.231 24.24C162.591 25.12 162.271 26.0933 162.271 27.16V38.8C162.271 39.12 162.151 39.4 161.911 39.64C161.671 39.88 161.391 40 161.071 40C160.698 40 160.404 39.88 160.191 39.64C159.978 39.4 159.871 39.12 159.871 38.8V20.88C159.871 20.56 159.978 20.28 160.191 20.04C160.431 19.8 160.724 19.68 161.071 19.68C161.418 19.68 161.698 19.8 161.911 20.04C162.151 20.28 162.271 20.56 162.271 20.88V24.24L161.351 25.68C161.404 24.8267 161.671 24.0133 162.151 23.24C162.658 22.44 163.298 21.7333 164.071 21.12C164.844 20.48 165.698 19.9867 166.631 19.64C167.591 19.2667 168.551 19.08 169.511 19.08Z" fill="white"/>
<path d="M185.636 38.8C185.636 39.12 185.516 39.4 185.276 39.64C185.036 39.88 184.756 40 184.436 40C184.089 40 183.796 39.88 183.556 39.64C183.343 39.4 183.236 39.12 183.236 38.8V11.6C183.236 11.28 183.356 11 183.596 10.76C183.836 10.52 184.116 10.4 184.436 10.4C184.783 10.4 185.063 10.52 185.276 10.76C185.516 11 185.636 11.28 185.636 11.6V38.8ZM210.864 29.76C210.864 31.7867 210.424 33.6133 209.544 35.24C208.664 36.84 207.464 38.1067 205.944 39.04C204.424 39.9467 202.691 40.4 200.744 40.4C198.851 40.4 197.131 39.9467 195.584 39.04C194.064 38.1067 192.851 36.84 191.944 35.24C191.064 33.6133 190.624 31.7867 190.624 29.76C190.624 27.7067 191.064 25.88 191.944 24.28C192.851 22.68 194.064 21.4133 195.584 20.48C197.131 19.5467 198.851 19.08 200.744 19.08C202.691 19.08 204.424 19.5467 205.944 20.48C207.464 21.4133 208.664 22.68 209.544 24.28C210.424 25.88 210.864 27.7067 210.864 29.76ZM208.464 29.76C208.464 28.1333 208.131 26.6933 207.464 25.44C206.797 24.16 205.877 23.16 204.704 22.44C203.557 21.6933 202.237 21.32 200.744 21.32C199.304 21.32 197.997 21.6933 196.824 22.44C195.651 23.16 194.717 24.16 194.024 25.44C193.357 26.6933 193.024 28.1333 193.024 29.76C193.024 31.3867 193.357 32.8267 194.024 34.08C194.717 35.3333 195.651 36.3333 196.824 37.08C197.997 37.8 199.304 38.16 200.744 38.16C202.237 38.16 203.557 37.8 204.704 37.08C205.877 36.3333 206.797 35.3333 207.464 34.08C208.131 32.8267 208.464 31.3867 208.464 29.76ZM235.005 29.76C235.005 31.7867 234.565 33.6133 233.685 35.24C232.805 36.84 231.605 38.1067 230.085 39.04C228.565 39.9467 226.831 40.4 224.885 40.4C222.991 40.4 221.271 39.9467 219.725 39.04C218.205 38.1067 216.991 36.84 216.085 35.24C215.205 33.6133 214.765 31.7867 214.765 29.76C214.765 27.7067 215.205 25.88 216.085 24.28C216.991 22.68 218.205 21.4133 219.725 20.48C221.271 19.5467 222.991 19.08 224.885 19.08C226.831 19.08 228.565 19.5467 230.085 20.48C231.605 21.4133 232.805 22.68 233.685 24.28C234.565 25.88 235.005 27.7067 235.005 29.76ZM232.605 29.76C232.605 28.1333 232.271 26.6933 231.605 25.44C230.938 24.16 230.018 23.16 228.845 22.44C227.698 21.6933 226.378 21.32 224.885 21.32C223.445 21.32 222.138 21.6933 220.965 22.44C219.791 23.16 218.858 24.16 218.165 25.44C217.498 26.6933 217.165 28.1333 217.165 29.76C217.165 31.3867 217.498 32.8267 218.165 34.08C218.858 35.3333 219.791 36.3333 220.965 37.08C222.138 37.8 223.445 38.16 224.885 38.16C226.378 38.16 227.698 37.8 228.845 37.08C230.018 36.3333 230.938 35.3333 231.605 34.08C232.271 32.8267 232.605 31.3867 232.605 29.76ZM249.825 19.4C251.639 19.4 253.239 19.8533 254.625 20.76C256.039 21.64 257.159 22.8667 257.985 24.44C258.812 25.9867 259.225 27.7733 259.225 29.8C259.225 31.8267 258.812 33.6267 257.985 35.2C257.159 36.7733 256.039 38.0133 254.625 38.92C253.212 39.8267 251.625 40.28 249.865 40.28C248.932 40.28 248.039 40.1467 247.185 39.88C246.359 39.5867 245.599 39.2 244.905 38.72C244.212 38.24 243.599 37.68 243.065 37.04C242.532 36.3733 242.105 35.6533 241.785 34.88L242.505 34.36V46.8C242.505 47.12 242.385 47.4 242.145 47.64C241.932 47.88 241.652 48 241.305 48C240.959 48 240.665 47.88 240.425 47.64C240.212 47.4 240.105 47.12 240.105 46.8V20.72C240.105 20.3733 240.212 20.08 240.425 19.84C240.639 19.6 240.932 19.48 241.305 19.48C241.652 19.48 241.932 19.6 242.145 19.84C242.385 20.08 242.505 20.3733 242.505 20.72V25.04L241.945 24.72C242.212 23.8933 242.599 23.16 243.105 22.52C243.639 21.8533 244.252 21.2933 244.945 20.84C245.639 20.36 246.399 20 247.225 19.76C248.052 19.52 248.919 19.4 249.825 19.4ZM249.625 21.64C248.185 21.64 246.919 22 245.825 22.72C244.732 23.4133 243.865 24.3733 243.225 25.6C242.612 26.8 242.305 28.2 242.305 29.8C242.305 31.3733 242.612 32.7867 243.225 34.04C243.865 35.2933 244.732 36.28 245.825 37C246.919 37.6933 248.185 38.04 249.625 38.04C251.039 38.04 252.279 37.6933 253.345 37C254.439 36.28 255.305 35.2933 255.945 34.04C256.585 32.7867 256.905 31.3733 256.905 29.8C256.905 28.2267 256.585 26.8267 255.945 25.6C255.305 24.3733 254.439 23.4133 253.345 22.72C252.279 22 251.039 21.64 249.625 21.64Z" fill="#1289CC"/>
</svg>
