<svg width="72" height="90" viewBox="0 0 72 90" fill="none" xmlns="http://www.w3.org/2000/svg">
<path d="M25.66 46.86C13.53 46.86 3.66 36.99 3.66 24.86C3.66 12.73 13.53 2.85999 25.66 2.85999C37.79 2.85999 47.66 12.73 47.66 24.86C47.66 36.98 37.79 46.86 25.66 46.86ZM25.66 4.84999C14.63 4.84999 5.66 13.82 5.66 24.85C5.66 35.88 14.63 44.85 25.66 44.85C36.69 44.85 45.66 35.88 45.66 24.85C45.66 13.82 36.69 4.84999 25.66 4.84999Z" fill="black"/>
<path d="M46.98 42.66C46.72 42.66 46.45 42.56 46.26 42.35L41.96 37.84C41.58 37.44 41.59 36.81 41.99 36.43C42.39 36.05 43.02 36.06 43.4 36.46L47.7 40.97C48.08 41.37 48.07 42 47.67 42.38C47.48 42.57 47.23 42.66 46.98 42.66Z" fill="black"/>
<path d="M41.46 47.93C41.2 47.93 40.93 47.83 40.74 47.62L36.43 43.11C36.05 42.71 36.06 42.08 36.46 41.7C36.86 41.32 37.49 41.33 37.87 41.73L42.18 46.24C42.56 46.64 42.55 47.27 42.15 47.65C41.96 47.84 41.71 47.93 41.46 47.93Z" fill="black"/>
<path d="M59.59 69.15C59.52 69.15 59.45 69.15 59.38 69.15C57.04 69.1 54.86 68.13 53.25 66.44L37.89 50.35C37.51 49.95 37.52 49.32 37.92 48.94L49.14 38.23C49.54 37.85 50.17 37.86 50.55 38.26L65.91 54.35C69.24 57.84 69.12 63.4 65.62 66.73C63.99 68.3 61.85 69.15 59.59 69.15ZM40.03 49.69L54.7 65.06C57.28 67.76 61.56 67.86 64.26 65.28C65.57 64.03 66.31 62.35 66.35 60.55C66.39 58.75 65.73 57.03 64.48 55.73L49.8 40.36L40.03 49.69Z" fill="black"/>
<path d="M25.66 41.84C16.29 41.84 8.67 34.22 8.67 24.85C8.67 15.48 16.29 7.85999 25.66 7.85999C35.03 7.85999 42.65 15.48 42.65 24.85C42.65 34.22 35.02 41.84 25.66 41.84ZM25.66 9.85998C17.4 9.85998 10.67 16.58 10.67 24.85C10.67 33.12 17.39 39.84 25.66 39.84C33.93 39.84 40.65 33.12 40.65 24.85C40.65 16.58 33.92 9.85998 25.66 9.85998Z" fill="black"/>
</svg>
